<?xml version="1.0" encoding="utf-8"?>
<!-- Generator: Adobe Illustrator 28.0.0, SVG Export Plug-In . SVG Version: 6.00 Build 0)  -->
<svg version="1.1" id="Layer_1" xmlns="http://www.w3.org/2000/svg" xmlns:xlink="http://www.w3.org/1999/xlink" x="0px" y="0px"
	 viewBox="0 0 240 100" style="enable-background:new 0 0 240 100;" xml:space="preserve">
<style type="text/css">
	.st0{fill:#312F24;}
</style>
<path class="st0" d="M59.8,62.1c15.9-3.4,39.1-9.8,42.4-6.1C107,61.6,72.6,87,72.6,87s36.7-27.8,40.2-24.1
	c3.1,3.2-18.5,30-18.2,30.3c0.3,0.2,18.4-26,24.6-23.7c7,2.6,6.1,26.9,6.1,26.9s0.5-28.2,5.7-30.4c9.1-3.8,29.6,21.8,29.6,21.8
	S140,64.3,142.4,60.1c3-5.2,46.8,1.3,46.8,1.3s-43-6.2-43.2-10.1c-0.2-4.3,37.5-18.5,37.5-18.5s-38.3,11.8-41,7.8
	c-3-4.6,18.3-29.5,18.3-29.5s-23,27.2-27.7,26.3c-6.1-1.2-6.5-33.7-6.5-33.7s-1.7,33.7-5.7,34.2C113.2,38.9,97,6.7,97,6.7
	s15.2,30.7,12.4,33.8c-4.6,5-35.4-15.1-35.4-15.1S99,41.7,98.5,47C97.8,55,78.3,55.1,59.8,62.1z"/>
<rect x="151.8" y="-62.3" width="35.9" height="50"/>
</svg>
